<?xml version="1.0" encoding="UTF-8" standalone="no"?>
<!-- Created with Inkscape (http://www.inkscape.org/) -->

<svg
   xmlns:dc="http://purl.org/dc/elements/1.1/"
   xmlns:cc="http://creativecommons.org/ns#"
   xmlns:rdf="http://www.w3.org/1999/02/22-rdf-syntax-ns#"
   xmlns:svg="http://www.w3.org/2000/svg"
   xmlns="http://www.w3.org/2000/svg"
   xmlns:sodipodi="http://sodipodi.sourceforge.net/DTD/sodipodi-0.dtd"
   xmlns:inkscape="http://www.inkscape.org/namespaces/inkscape"
   id="svg2"
   version="1.1"
   inkscape:version="0.48.5 r10040"
   width="1492.4996"
   height="1809.2717"
   sodipodi:docname="KoyoLogo.svg">
  <metadata
     id="metadata8">
    <rdf:RDF>
      <cc:Work
         rdf:about="">
        <dc:format>image/svg+xml</dc:format>
        <dc:type
           rdf:resource="http://purl.org/dc/dcmitype/StillImage" />
        <dc:title />
      </cc:Work>
    </rdf:RDF>
  </metadata>
  <defs
     id="defs6" />
  <sodipodi:namedview
     pagecolor="#ffffff"
     bordercolor="#666666"
     borderopacity="1"
     objecttolerance="10"
     gridtolerance="10"
     guidetolerance="10"
     inkscape:pageopacity="0"
     inkscape:pageshadow="2"
     inkscape:window-width="1764"
     inkscape:window-height="854"
     id="namedview4"
     showgrid="false"
     fit-margin-top="10"
     fit-margin-left="10"
     fit-margin-right="10"
     fit-margin-bottom="10"
     inkscape:zoom="0.23046875"
     inkscape:cx="577.14767"
     inkscape:cy="776.96541"
     inkscape:window-x="0"
     inkscape:window-y="27"
     inkscape:window-maximized="0"
     inkscape:current-layer="svg2" />
  <path
     style="fill:#0b69b8;fill-opacity:1;stroke:#000000;stroke-width:0;stroke-linecap:butt;stroke-linejoin:miter;stroke-miterlimit:4;stroke-opacity:1;stroke-dasharray:none"
     d="M 503.5986,1551.5553 z"
     id="path3775"
     inkscape:connector-curvature="0" />
  <path
     style="fill:#000000;fill-opacity:1;stroke:#000000;stroke-width:0;stroke-linecap:butt;stroke-linejoin:miter;stroke-miterlimit:4;stroke-opacity:1;stroke-dasharray:none"
     d="m 500.34436,1554.8095 c 19.58543,15.304 22.35196,19.112 69.42372,48.8136 10.31187,-0.7978 8.90479,-3.8286 9.76272,-8.678 L 400.54775,445.11465 C 504.49366,376.45181 629.93853,301.00349 686.98644,24.93452 686.35863,21.40104 698.11556,9.5889 717.29351,10.76703 c 17.9196,0.0683 21.42373,13.55932 21.42373,13.55932 l 2.44068,391.50016 c -0.83367,8.74838 4.05562,11.02568 10.84746,10.30509 7.33503,0.99218 11.63577,-3.03822 11.29677,-9.98737 L 762.85284,23.14855 C 764.44832,19.7209 769.91123,10.20954 785.24901,10 c 22.5836,0.0197 29.1753,5.767 32.7863,15.63575 16.9379,198.33392 147.1853,354.16859 275.79659,420.88136 L 923.52681,1596.216 c 0.5153,7.1302 2.9736,10.5381 8.5463,9.5765 39.9251,-18.9472 60.8191,-31.7354 73.31349,-49.7666 1.7036,-1.5687 7.5483,-11.0614 1.7392,-16.0869 -22.00399,-19.0354 -48.73199,-63.0832 -40.34079,-118.5532 14.9806,-55.0757 35.19909,-107.6572 134.50849,-122.5763 60.4016,-4.6566 136.0389,41.1818 139.9322,123.661 3.8933,82.4792 -54.2373,158.3729 -54.2373,158.3729 -31.0291,46.9427 -78.7697,81.4612 -121.4258,117.4158 -39.2166,32.569 -75.90319,51.4355 -132.59079,71.1438 -58.2586,19.3897 -117.9442,31.0474 -182.59355,29.4743 -52.95459,1.7081 -98.54511,-2.0747 -134.50848,-12.4746 -52.37508,-14.6714 -76.41558,-22.598 -120.40677,-47.1865 -38.55277,-20.9444 -70.42347,-39.0585 -89.49153,-58.0338 -42.21367,-36.7463 -77.61977,-76.0828 -105.76271,-120.9492 -16.19732,-30.6617 -34.61782,-49.5889 -38.50848,-138.8474 18.12022,-101.3463 72.67726,-116.324 129.08475,-126.9153 91.04637,4.5067 128.37765,58.4314 147.52543,129.0848 6.74891,34.8578 -10.11135,80.5364 -37.96611,131.2542 z"
     id="path3781"
     inkscape:connector-curvature="0"
     sodipodi:nodetypes="cccccccccccccccccscczcccccccccccc" />
  <flowRoot
     xml:space="preserve"
     id="flowRoot3783"
     style="font-size:144px;font-style:normal;font-weight:normal;line-height:125%;letter-spacing:0px;word-spacing:0px;fill:#000000;fill-opacity:1;stroke:none;font-family:Sans"
     transform="translate(0.27655982,-1.800603)"><flowRegion
       id="flowRegion3785"><rect
         id="rect3787"
         width="237.01695"
         height="289.08475"
         x="847.18646"
         y="551.05084"
         style="font-size:144px" /></flowRegion><flowPara
       id="flowPara3789" /></flowRoot>  <flowRoot
     xml:space="preserve"
     id="flowRoot3791"
     style="font-size:40px;font-style:normal;font-weight:normal;line-height:125%;letter-spacing:0px;word-spacing:0px;fill:#000000;fill-opacity:1;stroke:none;font-family:Sans"
     transform="matrix(1.2966102,0,0,1.6901036,-259.44643,-466.20112)"><flowRegion
       id="flowRegion3793"><rect
         id="rect3795"
         width="228.33899"
         height="296.13559"
         x="850.44067"
         y="544" /></flowRegion><flowPara
       id="flowPara3797"
       style="font-size:200px;font-style:normal;font-variant:normal;font-weight:normal;font-stretch:normal;font-family:Bookman URW;-inkscape-font-specification:Bookman URW" /></flowRoot>  <path
     style="fill:#ffffff;fill-opacity:1;stroke:#000000;stroke-width:0;stroke-linecap:butt;stroke-linejoin:miter;stroke-miterlimit:4;stroke-opacity:1;stroke-dasharray:none"
     d="m 680.95453,454.33499 132.61008,0.27118 c 0,0 7.8669,-0.17029 20.0679,7.32204 8.7596,6.15026 12.2767,10.26846 12.2034,14.64407 l 0.5423,129.08474 c -0.032,6.36059 -1.0158,8.67276 -4.8813,11.9322 -3.3663,4.47642 -11.4614,9.25796 -15.1865,9.49153 l -47.18639,1.89831 c -5.44508,-0.51319 -6.34102,2.38548 -9.22034,3.79661 -2.1081,2.23088 -3.6751,5.00286 -4.33898,8.67796 l -1.08475,96.27118 c -2.79024,4.3706 -5.97985,10.001 -12.47458,10.03391 -5.95721,0.26674 -12.18899,-5.56652 -12.74575,-10.30509 l -0.27119,-94.37288 c -0.11908,-2.38005 -0.78885,-4.21981 -4.33898,-8.13559 -4.25744,-4.73788 -6.73068,-4.45208 -10.30509,-5.42373 l -46.64406,-1.62712 c -5.23734,-0.71736 -12.51508,-8.2414 -15.72882,-11.11865 -5.17763,-5.38255 -8.60928,-9.10751 -8.67796,-16.54236 l -0.54238,-124.2034 c -0.4773,-4.61333 2.55175,-8.55109 11.11864,-15.72881 7.34184,-6.61868 17.08475,-5.9661 17.08475,-5.9661 z"
     id="path3799"
     inkscape:connector-curvature="0"
     sodipodi:nodetypes="cccccccccccccccccccccc" />
  <rect
     style="fill:#000000;fill-opacity:1;stroke:#000000;stroke-width:0;stroke-miterlimit:4;stroke-opacity:1;stroke-dasharray:none"
     id="rect3815"
     width="52.95451"
     height="48"
     x="683.34692"
     y="479.5553"
     ry="15" />
  <rect
     ry="15"
     y="479.5553"
     x="762.26221"
     height="48"
     width="52.95451"
     id="rect3817"
     style="fill:#000000;fill-opacity:1;stroke:#000000;stroke-width:0;stroke-miterlimit:4;stroke-opacity:1;stroke-dasharray:none" />
  <rect
     style="fill:#000000;fill-opacity:1;stroke:#000000;stroke-width:0;stroke-miterlimit:4;stroke-opacity:1;stroke-dasharray:none"
     id="rect3819"
     width="52.95451"
     height="48"
     x="762.26221"
     y="554.94519"
     ry="15" />
  <rect
     ry="15"
     y="554.67395"
     x="683.61816"
     height="48"
     width="52.95451"
     id="rect3821"
     style="fill:#000000;fill-opacity:1;stroke:#000000;stroke-width:0;stroke-miterlimit:4;stroke-opacity:1;stroke-dasharray:none" />
  <path
     style="fill:#000000;fill-opacity:1;stroke:#000000;stroke-width:0;stroke-linecap:butt;stroke-linejoin:miter;stroke-miterlimit:4;stroke-opacity:1;stroke-dasharray:none"
     d="m 1240.3029,1359.7443 24.9286,72.4844 c 46.6262,-22.5864 75.3362,-67.8665 107.3843,-108.9184 20.6699,-32.269 39.9912,-64.842 55.2262,-99.7141 14.6274,-25.2917 23.7839,-48.8461 32.9824,-70.9503 9.0659,-20.3263 9.5164,-24.1615 15.3406,-43.7208 10.1434,-43.0654 4.9584,-77.0585 5.3693,-114.2875 -2.8887,-80.16943 -79.8561,-152.53573 -159.5425,-151.48872 -98.461,0.79601 -162.4681,72.70569 -163.2461,150.71042 1.7762,136.8813 107.0674,174.077 154.0417,176.0448 14.7106,2.0162 20.5144,0.385 24.545,3.0681 3.3267,1.9554 2.7928,5.9985 3.0681,13.0395 -2.2172,10.8244 -5.7118,22.2874 -9.9714,34.1329 -8.073,19.3036 -15.0605,38.6072 -27.9966,57.9108 -8.5286,16.5156 -19.883,32.2979 -31.4483,46.789 z"
     id="path3823"
     inkscape:connector-curvature="0"
     sodipodi:nodetypes="cccccccccccccccc" />
  <path
     sodipodi:nodetypes="cccccccccccccccc"
     inkscape:connector-curvature="0"
     id="path3825"
     d="m 252.19677,1360.8291 -24.9286,72.4844 c -46.6262,-22.5864 -75.3362,-67.8665 -107.3843,-108.9184 -20.669903,-32.269 -39.991203,-64.842 -55.226203,-99.7141 -14.6274,-25.2917 -23.7839,-48.8461 -32.9824,-70.9503 -9.0659,-20.3263 -9.5164,-24.1615 -15.3406,-43.7208 -10.1433999,-43.0654 -4.9584,-77.0585 -5.3693,-114.2875 2.8887,-80.16943 79.8561,-152.53578 159.542503,-151.48877 98.461,0.79601 162.4681,72.70574 163.2461,150.71047 -1.7762,136.8813 -107.0674,174.077 -154.0417,176.0448 -14.7106,2.0162 -20.5144,0.385 -24.545,3.0681 -3.3267,1.9554 -2.7928,5.9985 -3.0681,13.0395 2.2172,10.8244 5.7118,22.2874 9.9714,34.1329 8.073,19.3036 15.0605,38.6072 27.9966,57.9108 8.5286,16.5156 19.883,32.2979 31.4483,46.789 z"
     style="fill:#000000;fill-opacity:1;stroke:#000000;stroke-width:0;stroke-linecap:butt;stroke-linejoin:miter;stroke-miterlimit:4;stroke-opacity:1;stroke-dasharray:none" />
  <path
     style="fill:#000000;fill-opacity:1;stroke:#000000;stroke-width:0;stroke-linecap:butt;stroke-linejoin:miter;stroke-miterlimit:4;stroke-opacity:1;stroke-dasharray:none"
     d="m 1298.7172,815.01296 67.2543,9.76271 c 15.9096,-28.07064 31.8192,-50.32083 47.7288,-168.1356 0.9443,-53.44389 6.3178,-114.85514 -5.4237,-156.20339 -31.157,-83.02173 -79.4873,-125.97242 -145.356,-128 -72.4637,1.20504 -155.8443,39.94625 -156.2034,136.67797 0.8587,102.10895 56.2833,139.35323 124.6687,156.83882 37.0747,8.28967 52.9516,-9.56941 72.7551,-7.14391 5.4603,2.09635 11.4866,3.06061 13.0169,13.01695 3.882,12.78938 4.7765,33.54504 0,69.42373 z"
     id="path3827"
     inkscape:connector-curvature="0"
     sodipodi:nodetypes="ccccccccccc" />
  <path
     sodipodi:nodetypes="ccccccccccc"
     inkscape:connector-curvature="0"
     id="path3829"
     d="m 195.924,818.08108 -67.2543,9.76271 c -15.90964,-28.07064 -31.819243,-50.32083 -47.728843,-168.1356 -0.9443,-53.44389 -6.3178,-114.85514 5.4237,-156.20339 31.157043,-83.02173 79.487343,-125.97242 145.356043,-128 72.4637,1.20504 155.8443,39.94625 156.2034,136.67797 -0.8587,102.10895 -56.2833,139.35323 -124.6687,156.83882 -37.0747,8.28967 -52.9516,-9.56941 -72.7551,-7.14391 -5.4603,2.09635 -11.4866,3.06061 -13.0169,13.01695 -3.882,12.78938 -4.7765,33.54504 0,69.42373 z"
     style="fill:#000000;fill-opacity:1;stroke:#000000;stroke-width:0;stroke-linecap:butt;stroke-linejoin:miter;stroke-miterlimit:4;stroke-opacity:1;stroke-dasharray:none" />
</svg>
